<svg width="8" height="8" viewBox="0 0 8 8" fill="none" xmlns="http://www.w3.org/2000/svg">
<path d="M0.000117213 2.7899C0.0401172 2.21657 0.226784 1.72324 0.560117 1.3099C0.893451 0.889902 1.33345 0.566569 1.88012 0.339902C2.43345 0.113235 3.06012 -9.81092e-05 3.76012 -9.81092e-05C4.42678 -9.81092e-05 5.01012 0.103235 5.51012 0.309902C6.01012 0.509902 6.40012 0.793235 6.68012 1.1599C6.96012 1.52657 7.10012 1.95324 7.10012 2.4399C7.10012 2.81324 7.00345 3.1599 6.81012 3.4799C6.61678 3.7999 6.30678 4.12324 5.88012 4.4499C5.46012 4.7699 4.90012 5.11657 4.20012 5.4899L1.93012 6.7399L1.80012 6.2799H7.31012V7.6499H0.110117V6.4499L3.32012 4.5699C3.85345 4.26324 4.27012 3.9999 4.57012 3.7799C4.87012 3.55324 5.08345 3.34324 5.21012 3.1499C5.33678 2.95657 5.40012 2.7499 5.40012 2.5299C5.40012 2.29657 5.33678 2.0899 5.21012 1.9099C5.08345 1.7299 4.89345 1.5899 4.64012 1.4899C4.39345 1.3899 4.08012 1.3399 3.70012 1.3399C3.25345 1.3399 2.88678 1.40657 2.60012 1.5399C2.31345 1.66657 2.09678 1.8399 1.95012 2.0599C1.81012 2.2799 1.72678 2.52324 1.70012 2.7899H0.000117213Z" fill="#1F1F1F"/>
</svg>
