<svg width="8" height="8" viewBox="0 0 8 8" fill="none" xmlns="http://www.w3.org/2000/svg">
<path d="M0.199932 2.5199C0.239932 2.04657 0.406598 1.6199 0.699932 1.2399C0.999932 0.859902 1.42327 0.559902 1.96993 0.339902C2.5166 0.113235 3.17327 -9.81092e-05 3.93993 -9.81092e-05C4.61327 -9.81092e-05 5.1966 0.0865686 5.68993 0.259902C6.18327 0.433235 6.5666 0.673235 6.83993 0.979902C7.11327 1.28657 7.24993 1.6499 7.24993 2.0699C7.24993 2.4099 7.1466 2.7199 6.93993 2.9999C6.73993 3.27324 6.4266 3.49324 5.99993 3.6599C5.57327 3.8199 5.03327 3.89657 4.37993 3.8899V3.6999C5.01327 3.66657 5.55327 3.71657 5.99993 3.8499C6.45327 3.97657 6.80327 4.17657 7.04993 4.4499C7.2966 4.72324 7.41993 5.06657 7.41993 5.4799C7.41993 5.92657 7.2766 6.32657 6.98993 6.6799C6.70993 7.02657 6.29993 7.2999 5.75993 7.4999C5.21993 7.6999 4.56327 7.7999 3.78993 7.7999C3.0366 7.7999 2.37993 7.69324 1.81993 7.4799C1.25993 7.26657 0.823265 6.96657 0.509932 6.5799C0.196598 6.19324 0.0265983 5.7399 -6.83442e-05 5.2199H1.69993C1.75327 5.6199 1.95327 5.92657 2.29993 6.1399C2.6466 6.35324 3.14327 6.4599 3.78993 6.4599C4.4166 6.4599 4.88993 6.36324 5.20993 6.1699C5.52993 5.97657 5.68993 5.70657 5.68993 5.3599C5.68993 5.15324 5.6366 4.9799 5.52993 4.8399C5.42327 4.6999 5.23993 4.59657 4.97993 4.5299C4.7266 4.45657 4.37993 4.4199 3.93993 4.4199H2.61993V3.2299H3.93993C4.51327 3.2299 4.92327 3.14324 5.16993 2.9699C5.4166 2.79657 5.53993 2.57324 5.53993 2.2999C5.53993 1.99324 5.39993 1.75657 5.11993 1.5899C4.83993 1.42324 4.4166 1.3399 3.84993 1.3399C3.26993 1.3399 2.8166 1.44324 2.48993 1.6499C2.16327 1.8499 1.9666 2.1399 1.89993 2.5199H0.199932Z" fill="#1F1F1F"/>
</svg>
