<svg width="8" height="8" viewBox="0 0 8 8" fill="none" xmlns="http://www.w3.org/2000/svg">
<path d="M0.929932 -5.96046e-07H6.60993V1.3H1.44993L2.13993 0.95L1.71993 3.88H1.26993C1.42327 3.64 1.6266 3.41667 1.87993 3.21C2.13993 3.00333 2.4566 2.83667 2.82993 2.71C3.20327 2.58333 3.63327 2.52 4.11993 2.52C4.7666 2.52 5.31993 2.63 5.77993 2.85C6.23993 3.06333 6.58993 3.36 6.82993 3.74C7.0766 4.11333 7.19993 4.54 7.19993 5.02C7.19993 5.53333 7.0566 5.98667 6.76993 6.38C6.48327 6.77333 6.0766 7.08333 5.54993 7.31C5.02327 7.53667 4.3966 7.65 3.66993 7.65C2.94993 7.65 2.32327 7.54667 1.78993 7.34C1.2566 7.12667 0.836598 6.83667 0.529932 6.47C0.229932 6.10333 0.053265 5.69667 -6.83442e-05 5.25H1.68993C1.76993 5.57667 1.97993 5.83667 2.31993 6.03C2.65993 6.21667 3.10993 6.31 3.66993 6.31C4.04327 6.31 4.3666 6.26 4.63993 6.16C4.91327 6.05333 5.12327 5.90333 5.26993 5.71C5.42327 5.51667 5.49993 5.28667 5.49993 5.02C5.49993 4.76 5.43327 4.53333 5.29993 4.34C5.17327 4.14 4.97993 3.98667 4.71993 3.88C4.4666 3.77333 4.14327 3.72 3.74993 3.72C3.42993 3.72 3.13993 3.75667 2.87993 3.83C2.6266 3.90333 2.4066 4 2.21993 4.12C2.03993 4.23333 1.8866 4.35333 1.75993 4.48H0.309932L0.929932 -5.96046e-07Z" fill="#1F1F1F"/>
</svg>
