<svg width="68" height="66" viewBox="0 0 68 66" fill="none" xmlns="http://www.w3.org/2000/svg">
<path d="M36.4401 17.936L7.58857 16.0038C6.64805 15.9414 5.83232 16.6555 5.76933 17.5969L5.54365 20.9759H1.70898C0.766699 20.9759 0 21.7435 0 22.687V64.2889C0 65.2323 0.766699 66 1.70898 66H23.7931C23.9866 65.9992 24.1721 65.9225 24.3099 65.7864L27.6437 62.4631C27.6775 62.4704 27.7121 62.4761 27.7477 62.4785L33.4393 62.8596C34.3477 62.9197 35.1976 62.1799 35.2585 61.2665L38.0312 19.7576C38.0936 18.826 37.3705 17.9983 36.4401 17.936ZM24.5255 63.4917V58.3974C24.5255 58.2626 24.6351 58.1529 24.7696 58.1529H29.838L24.5255 63.4917ZM33.7969 61.1687C33.773 61.3164 33.6864 61.3922 33.5371 61.3962L29.0176 61.0935L32.1184 58.0026C32.1867 57.9345 32.241 57.8535 32.278 57.7643C32.315 57.6751 32.3341 57.5795 32.3341 57.4829V22.6871C32.3341 21.7436 31.5674 20.976 30.6251 20.976H23.0086C22.0616 20.976 22.0616 22.4427 23.0086 22.4427H30.6251C30.7598 22.4427 30.8692 22.5524 30.8692 22.6871V56.6862H24.7696C23.8273 56.6862 23.0606 57.4539 23.0606 58.3974V64.5333H1.70898C1.64426 64.5332 1.5822 64.5075 1.53644 64.4616C1.49067 64.4158 1.46492 64.3537 1.46484 64.2889V22.6871C1.46484 22.5524 1.57441 22.4427 1.70898 22.4427H19.1082C20.0552 22.4427 20.0552 20.976 19.1082 20.976H7.01172L7.23086 17.6949C7.25469 17.5471 7.34131 17.4714 7.49072 17.4674L36.3423 19.3995C36.4898 19.4233 36.5656 19.5101 36.5696 19.6597L33.7969 61.1687Z" fill="#1F1F1F"/>
<path d="M26.155 39.1468H6.1791C5.98485 39.1468 5.79856 39.2241 5.6612 39.3616C5.52384 39.4991 5.44668 39.6857 5.44668 39.8802C5.44668 40.0747 5.52384 40.2612 5.6612 40.3987C5.79856 40.5363 5.98485 40.6135 6.1791 40.6135H26.155C26.5596 40.6135 26.8874 40.2852 26.8874 39.8802C26.8874 39.4752 26.5596 39.1468 26.155 39.1468ZM26.155 44.2592H6.1791C5.98485 44.2592 5.79856 44.3365 5.6612 44.474C5.52384 44.6115 5.44668 44.7981 5.44668 44.9926C5.44668 45.1871 5.52384 45.3736 5.6612 45.5111C5.79856 45.6487 5.98485 45.7259 6.1791 45.7259H26.155C26.5596 45.7259 26.8874 45.3976 26.8874 44.9926C26.8874 44.5876 26.5596 44.2592 26.155 44.2592ZM5.44668 34.7678C5.44668 34.9623 5.52384 35.1488 5.6612 35.2863C5.79856 35.4239 5.98485 35.5011 6.1791 35.5011H26.155C26.5596 35.5011 26.8874 35.1728 26.8874 34.7678C26.8874 34.3628 26.5596 34.0344 26.155 34.0344H6.1791C5.98485 34.0344 5.79856 34.1117 5.6612 34.2492C5.52384 34.3867 5.44668 34.5733 5.44668 34.7678ZM8.96553 29.6554C8.96553 29.8499 9.04269 30.0364 9.18005 30.1739C9.3174 30.3115 9.5037 30.3887 9.69795 30.3887H22.6361C22.8304 30.3887 23.0167 30.3115 23.154 30.1739C23.2914 30.0364 23.3686 29.8499 23.3686 29.6554C23.3686 29.4609 23.2914 29.2743 23.154 29.1368C23.0167 28.9993 22.8304 28.922 22.6361 28.922H9.69795C9.5037 28.922 9.3174 28.9993 9.18005 29.1368C9.04269 29.2743 8.96553 29.4609 8.96553 29.6554ZM19.019 58.8729C17.7018 58.8764 16.3845 58.8792 15.0672 58.8813C14.6244 58.8819 14.1817 58.8825 13.7391 58.8828C12.9368 58.8834 12.3963 58.7222 12.2166 57.8386C12.0646 57.0916 11.0092 57.192 10.8041 57.8386C10.2973 59.4361 9.45898 58.8102 8.98945 57.7357C8.521 56.6637 8.40088 55.464 8.19629 54.3232C8.0459 53.4849 6.77969 53.7199 6.75762 54.5181C6.72851 55.5694 6.63047 56.6039 6.36396 57.6234C6.08906 58.6753 5.67705 59.6863 5.26807 60.6914C4.91152 61.5676 6.3293 61.9445 6.68056 61.0813C7.04297 60.1907 7.40586 59.2953 7.67598 58.3714C8.17793 59.58 9.2164 60.947 10.6962 60.1413C10.9715 59.9915 11.2286 59.7784 11.4543 59.5299C12.2238 60.4203 13.3692 60.3501 14.441 60.3488C15.9671 60.3469 17.4932 60.3436 19.0192 60.3395C19.9615 60.3371 19.9633 58.8704 19.019 58.8729ZM49.4074 40.0652C49.0268 39.686 48.5036 39.4915 47.9724 39.4771L47.4188 39.4799V38.4318C47.4188 37.7934 47.0401 37.1189 46.4976 36.783V35.3067C46.4976 32.2688 41.7738 32.282 41.7738 35.321V36.7975C41.2212 37.1395 40.8505 37.7499 40.8505 38.4453V39.5191C38.4124 39.6853 38.4055 43.4053 40.8532 43.5507C40.8688 46.8337 40.8681 50.0628 40.8505 53.4007C40.8457 54.3212 42.3103 54.3752 42.3153 53.4084C42.3329 50.0677 42.3337 46.8357 42.3182 43.55L45.952 43.5319C45.952 43.5319 45.9474 54.3706 45.9474 59.2533C45.9474 61.6331 42.3127 61.6489 42.3127 59.2286L42.314 57.8912C42.3711 56.9447 40.909 56.8564 40.8517 57.8029V59.0578C40.8517 60.1333 41.184 61.0442 41.8271 61.685C41.8844 63.2194 42.5301 64.7042 43.621 65.7874C43.934 66.0984 44.3673 66.0033 44.6702 65.7696C45.7801 64.6564 46.4055 63.1888 46.4445 61.6224C46.928 61.1403 47.4121 60.6548 47.4121 58.9925L47.4127 52.3092C48.6793 52.6699 50 51.6885 50 50.3589V41.493C50.0008 41.2276 49.9488 40.9646 49.847 40.7195C49.7453 40.4743 49.5959 40.2519 49.4074 40.0652ZM42.3153 39.5052V38.4452C42.3153 38.2282 42.4641 38.0462 42.6642 37.9921L45.5964 37.9776C45.6784 37.9979 45.7541 38.0367 45.8154 38.0979C45.8595 38.1416 45.8944 38.1936 45.9182 38.2509C45.942 38.3082 45.9542 38.3697 45.954 38.4318V39.4872L42.3153 39.5052ZM44.1387 34.4207C44.5883 34.4207 45.0327 34.862 45.0327 35.3067V36.4963L43.2386 36.5052V35.321C43.2387 34.8269 43.6422 34.4231 44.1387 34.4207ZM44.1376 64.1359C43.7969 63.6519 43.5512 63.1076 43.4133 62.5318C43.64 62.5809 43.8697 62.6066 44.0995 62.6066C44.356 62.6066 44.6125 62.5747 44.865 62.513C44.731 63.0964 44.4838 63.6478 44.1376 64.1359ZM48.5351 50.3589C48.5351 51.0532 47.4168 51.1079 47.4168 50.3717C47.4168 50.3717 47.4181 43.4319 47.4188 42.7958C47.4193 42.3855 47.0787 42.0615 46.6808 42.0615L40.9787 42.0899C40.2715 42.0899 40.288 40.9819 40.9859 40.9785L47.9796 40.9438C48.3178 40.9727 48.5029 41.1558 48.535 41.493V50.3589H48.5351Z" fill="#1F1F1F"/>
<circle cx="56" cy="12" r="12" fill="url(#paint0_linear_8021_1364)"/>
<path opacity="0.8" d="M51.7817 10.72C51.8257 10.0747 52.0384 9.51733 52.4197 9.048C52.801 8.57133 53.307 8.20833 53.9377 7.959C54.5757 7.70233 55.2944 7.574 56.0937 7.574C56.8564 7.574 57.52 7.69133 58.0847 7.926C58.6567 8.15333 59.1004 8.47233 59.4157 8.883C59.731 9.29367 59.8887 9.77033 59.8887 10.313C59.8887 10.731 59.775 11.1233 59.5477 11.49C59.3204 11.8493 58.9647 12.205 58.4807 12.557C57.9967 12.9017 57.3624 13.2647 56.5777 13.646L54.3117 14.779L54.2237 14.196H60.1197V16H51.9577V14.416L55.4997 12.425C56.0497 12.1097 56.475 11.8457 56.7757 11.633C57.0837 11.413 57.3 11.2113 57.4247 11.028C57.5567 10.8447 57.6227 10.6503 57.6227 10.445C57.6227 10.2177 57.5604 10.0233 57.4357 9.862C57.3184 9.69333 57.1387 9.56133 56.8967 9.466C56.6547 9.37067 56.3577 9.323 56.0057 9.323C55.5657 9.323 55.2064 9.389 54.9277 9.521C54.649 9.64567 54.44 9.81433 54.3007 10.027C54.1614 10.2323 54.077 10.4633 54.0477 10.72H51.7817Z" fill="white"/>
<defs>
<linearGradient id="paint0_linear_8021_1364" x1="44" y1="16.5" x2="68" y2="6.5" gradientUnits="userSpaceOnUse">
<stop stop-color="#9F7437"/>
<stop offset="1" stop-color="#E3D293"/>
</linearGradient>
</defs>
</svg>
