<svg width="12" height="7" viewBox="0 0 12 7" fill="none" xmlns="http://www.w3.org/2000/svg">
<path opacity="0.4" d="M6.00254 2.35226L1.51317 6.80974C1.38985 6.93248 1.22498 7 1.04917 7C0.873268 7 0.708488 6.93248 0.584976 6.80974L0.191805 6.41915C0.0680976 6.29661 7.31329e-08 6.1328 7.10512e-08 5.95823C6.89696e-08 5.78367 0.0680976 5.62005 0.191805 5.49741L5.53678 0.190066C5.66068 0.0669413 5.82624 -0.000481836 6.00224 2.52376e-06C6.17902 -0.00048184 6.34439 0.0668445 6.46839 0.190066L11.8082 5.49247C11.9319 5.61511 12 5.77873 12 5.95339C12 6.12795 11.9319 6.29157 11.8082 6.41431L11.415 6.8048C11.1591 7.0589 10.7425 7.0589 10.4867 6.8048L6.00254 2.35226Z" fill="white"/>
</svg>
