<svg width="36" height="36" viewBox="0 0 36 36" fill="none" xmlns="http://www.w3.org/2000/svg">
<circle cx="18" cy="18" r="18" fill="#0A0A0A"/>
<path d="M25.9421 18.6319C25.822 17.3691 25.6243 17.1231 25.5497 17.0306C25.378 16.8169 25.1033 16.6772 24.8126 16.5306C24.7961 16.5225 24.7819 16.5109 24.7711 16.4967C24.7603 16.4825 24.7531 16.4662 24.7502 16.449C24.7472 16.4318 24.7486 16.4141 24.7541 16.3975C24.7597 16.3809 24.7693 16.3657 24.7822 16.3531C24.8361 16.3019 24.8774 16.2404 24.9035 16.1729C24.9296 16.1053 24.9397 16.0332 24.9332 15.9616C24.9207 15.8346 24.8577 15.7166 24.7567 15.6311C24.6558 15.5456 24.5242 15.4988 24.3882 15.5H23.8681C23.8458 15.5001 23.8235 15.5015 23.8014 15.5041C23.7862 15.4979 23.7705 15.493 23.7544 15.4894C23.4464 14.8791 23.0246 14.0434 22.1505 13.6356C20.854 13.0312 18.4656 13 17.9989 13C17.5322 13 15.1438 13.0312 13.849 13.6347C12.9748 14.0425 12.5531 14.8781 12.245 15.4884L12.2424 15.4934C12.227 15.4955 12.2119 15.499 12.1974 15.5041C12.1753 15.5015 12.153 15.5001 12.1307 15.5H11.6096C11.4736 15.4988 11.342 15.5456 11.241 15.6311C11.1401 15.7166 11.0771 15.8346 11.0645 15.9616C11.0586 16.033 11.0692 16.1048 11.0956 16.1721C11.122 16.2393 11.1636 16.3004 11.2176 16.3513C11.2305 16.3638 11.2401 16.379 11.2456 16.3956C11.2512 16.4123 11.2526 16.4299 11.2496 16.4471C11.2467 16.4643 11.2395 16.4806 11.2287 16.4948C11.2179 16.509 11.2037 16.5206 11.1872 16.5287C10.8965 16.6762 10.6205 16.8159 10.4501 17.0287C10.3754 17.1225 10.1781 17.3672 10.0577 18.63C9.99105 19.3406 9.98105 20.0763 10.0334 20.55C10.1431 21.5344 10.3488 22.1294 10.3574 22.1541C10.389 22.2439 10.4471 22.3235 10.525 22.3836C10.6029 22.4438 10.6974 22.4819 10.7975 22.4937V22.5C10.7975 22.6326 10.8537 22.7598 10.9537 22.8536C11.0538 22.9473 11.1894 23 11.3309 23H13.1979C13.3393 23 13.475 22.9473 13.575 22.8536C13.6751 22.7598 13.7313 22.6326 13.7313 22.5C14.0183 22.5 14.218 22.4519 14.4297 22.4006C14.7353 22.3234 15.0477 22.2721 15.3632 22.2472C16.3803 22.1562 17.3918 22.125 17.9989 22.125C18.5936 22.125 19.6498 22.1562 20.6686 22.2472C20.9853 22.2721 21.2989 22.3237 21.6058 22.4012C21.8085 22.45 22.0008 22.495 22.2672 22.4997C22.2672 22.6323 22.3234 22.7595 22.4234 22.8532C22.5235 22.947 22.6591 22.9997 22.8006 22.9997H24.6675C24.809 22.9997 24.9447 22.947 25.0447 22.8532C25.1448 22.7595 25.201 22.6323 25.201 22.4997V22.4959C25.3013 22.4844 25.3961 22.4463 25.4742 22.3861C25.5524 22.326 25.6107 22.2463 25.6424 22.1562C25.651 22.1316 25.8567 21.5366 25.9664 20.5522C26.0187 20.0781 26.0094 19.3438 25.9421 18.6319ZM13.2092 15.9159C13.4759 15.3847 13.7809 14.7834 14.324 14.53C15.1088 14.1638 16.7354 13.9987 17.9989 13.9987C19.2624 13.9987 20.889 14.1625 21.6738 14.53C22.2168 14.7834 22.5206 15.385 22.7886 15.9159L22.8219 15.9837C22.8414 16.0224 22.8501 16.065 22.847 16.1076C22.8439 16.1502 22.8292 16.1914 22.8043 16.2272C22.7795 16.263 22.7452 16.2922 22.7049 16.312C22.6645 16.3319 22.6195 16.3417 22.5739 16.3406C21.4661 16.3125 19.1324 16.2225 17.9989 16.2225C16.8654 16.2225 14.5317 16.3147 13.4222 16.3428C13.3767 16.3439 13.3316 16.3341 13.2912 16.3142C13.2509 16.2944 13.2167 16.2652 13.1918 16.2294C13.1669 16.1936 13.1522 16.1524 13.1492 16.1098C13.1461 16.0672 13.1547 16.0245 13.1742 15.9859C13.1859 15.9628 13.1982 15.9394 13.2092 15.9159ZM13.6069 18.4044C13.0334 18.4691 12.4563 18.501 11.8787 18.5C11.5253 18.5 11.1609 18.4062 11.0932 18.1112C11.0469 17.9128 11.0519 17.8012 11.0769 17.6891C11.0979 17.5938 11.1312 17.5244 11.2979 17.5C11.7313 17.4375 11.9737 17.5159 12.6831 17.7119C13.1535 17.8416 13.4929 18.0144 13.6863 18.1512C13.7833 18.2188 13.7316 18.395 13.6069 18.4044ZM20.9873 20.9669C20.5486 21.0138 19.6711 20.9966 18.0089 20.9966C16.3467 20.9966 15.4695 21.0138 15.0308 20.9669C14.5781 20.9197 14.001 20.5184 14.395 20.1609C14.6574 19.9253 15.2695 19.7491 16.0846 19.65C16.8997 19.5509 17.2448 19.5 18.0056 19.5C18.7663 19.5 19.0764 19.5312 19.9265 19.6503C20.7766 19.7694 21.4191 19.9478 21.6161 20.1613C21.9755 20.5438 21.4397 20.9172 20.9873 20.9688V20.9669ZM24.9046 18.1109C24.8379 18.4072 24.4712 18.4997 24.1191 18.4997C23.5305 18.4998 22.9423 18.4679 22.3575 18.4041C22.2555 18.395 22.2082 18.2272 22.3115 18.1509C22.5019 18.0106 22.8449 17.8412 23.3147 17.7116C24.0241 17.5156 24.4332 17.4372 24.7846 17.5025C24.8702 17.5184 24.9156 17.6047 24.9209 17.6588C24.9444 17.8093 24.9389 17.9626 24.9046 18.1112V18.1109Z" fill="white"/>
</svg>
