<svg width="36" height="36" viewBox="0 0 36 36" fill="none" xmlns="http://www.w3.org/2000/svg">
<circle cx="18" cy="18" r="18" fill="#0A0A0A"/>
<path d="M18 17.4286C20.0571 17.4286 21.7247 15.7656 21.7247 13.7143C21.7247 11.6629 20.0571 10 18 10C15.9429 10 14.2753 11.6629 14.2753 13.7143C14.2753 15.7656 15.9429 17.4286 18 17.4286Z" fill="white"/>
<path d="M12.0003 23.4114C11.9946 23.5829 12.0691 23.7543 12.2009 23.8686C13.8283 25.24 15.8855 26 18 26C20.1145 26 22.1717 25.24 23.7991 23.8686C23.9309 23.7543 24.0054 23.5829 23.9997 23.4114C23.9137 21.0171 22.4124 18.9086 20.1775 18.04C20.047 17.9896 19.9026 17.9875 19.7707 18.0343C18.6475 18.44 17.3525 18.44 16.2293 18.0343C16.0974 17.9875 15.953 17.9896 15.8225 18.04C13.5876 18.9086 12.0863 21.0171 12.0003 23.4114Z" fill="white"/>
</svg>
