<svg width="80" height="80" viewBox="0 0 80 80" fill="none" xmlns="http://www.w3.org/2000/svg">
<rect width="80" height="80" rx="20" fill="white"/>
<path d="M50.5 20H28.1C27.5436 20.0016 27.0104 20.2128 26.6169 20.5875C26.2234 20.9623 26.0017 21.4701 26 22V36H23.2C23.1112 35.9987 23.0231 36.0146 22.941 36.0467L19.441 37.38C19.3108 37.4294 19.1991 37.5149 19.1205 37.6255C19.0418 37.736 18.9999 37.8665 19 38V47.3333C19.0006 47.4431 19.0297 47.5511 19.0846 47.6476C19.1396 47.7442 19.2187 47.8263 19.315 47.8867L21.422 49.22C21.5353 49.2941 21.6696 49.3337 21.807 49.3333H26V58C26.0017 58.5299 26.2234 59.0377 26.6169 59.4125C27.0104 59.7872 27.5436 59.9984 28.1 60H50.5C51.0564 59.9984 51.5896 59.7872 51.9831 59.4125C52.3766 59.0377 52.5983 58.5299 52.6 58V22C52.5983 21.4701 52.3766 20.9623 51.9831 20.5875C51.5896 20.2128 51.0564 20.0016 50.5 20ZM25.93 41.3333H26V48H22.017L20.4 46.9733V38.4533L23.333 37.3333H31.6C31.9713 37.3333 32.3274 37.4738 32.5899 37.7239C32.8525 37.9739 33 38.313 33 38.6667C33 39.0203 32.8525 39.3594 32.5899 39.6095C32.3274 39.8595 31.9713 40 31.6 40H25.3C25.1143 40 24.9363 40.0702 24.805 40.1953C24.6737 40.3203 24.6 40.4899 24.6 40.6667C24.5983 41.1966 24.3766 41.7044 23.9831 42.0791C23.5896 42.4539 23.0564 42.6651 22.5 42.6667V44C23.3065 43.999 24.0881 43.7333 24.7129 43.2475C25.3377 42.7618 25.7675 42.0857 25.93 41.3333ZM51.2 58C51.2 58.1768 51.1263 58.3464 50.995 58.4714C50.8637 58.5964 50.6857 58.6667 50.5 58.6667H28.1C27.9143 58.6667 27.7363 58.5964 27.605 58.4714C27.4738 58.3464 27.4 58.1768 27.4 58V41.3333H31.6C32.3426 41.3333 33.0548 41.0524 33.5799 40.5523C34.105 40.0522 34.4 39.3739 34.4 38.6667C34.4 37.9594 34.105 37.2811 33.5799 36.781C33.0548 36.281 32.3426 36 31.6 36H27.4V22C27.4 21.8232 27.4738 21.6536 27.605 21.5286C27.7363 21.4036 27.9143 21.3333 28.1 21.3333H50.5C50.6857 21.3333 50.8637 21.4036 50.995 21.5286C51.1263 21.6536 51.2 21.8232 51.2 22V58Z" fill="#1F1F1F"/>
<path d="M39.3 32C39.4856 32 39.6637 31.9297 39.7949 31.8047L43.7548 28.0333L42.765 27.0907L39.3 30.3907L37.8146 28.976L36.8248 29.9187L38.8051 31.8047C38.9363 31.9297 39.1144 32 39.3 32Z" fill="#1F1F1F"/>
<path d="M45.887 25.3933L39.587 22.7267C39.497 22.6871 39.3991 22.6667 39.3 22.6667C39.2009 22.6667 39.103 22.6871 39.013 22.7267L32.713 25.3933C32.5895 25.445 32.4846 25.53 32.4112 25.6378C32.3378 25.7456 32.2991 25.8715 32.3 26V30.2733C32.2997 31.12 32.4879 31.9571 32.8523 32.7293C33.2167 33.5016 33.749 34.1914 34.414 34.7533L38.838 38.5C38.9657 38.6069 39.13 38.6658 39.3 38.6658C39.47 38.6658 39.6343 38.6069 39.762 38.5L44.186 34.7533C44.851 34.1914 45.3833 33.5016 45.7477 32.7293C46.1121 31.9571 46.3003 31.12 46.3 30.2733V26C46.3009 25.8715 46.2622 25.7456 46.1888 25.6378C46.1154 25.53 46.0105 25.445 45.887 25.3933ZM44.9 30.2733C44.8991 30.9321 44.7522 31.5832 44.4687 32.1841C44.1852 32.7849 43.7716 33.322 43.255 33.76L39.3 37.1067L35.345 33.76C34.8284 33.322 34.4148 32.7849 34.1313 32.1841C33.8478 31.5832 33.7009 30.9321 33.7 30.2733V26.4333L39.3 24.06L44.9 26.4333V30.2733ZM60.3 33.3333H58.2V31.3333C58.2 30.8029 57.9787 30.2942 57.5849 29.9191C57.1911 29.544 56.657 29.3333 56.1 29.3333C55.543 29.3333 55.0089 29.544 54.6151 29.9191C54.2212 30.2942 54 30.8029 54 31.3333V54C54.0001 54.054 54.0071 54.1077 54.021 54.16L55.421 59.4933C55.4589 59.6375 55.5464 59.7654 55.6694 59.8569C55.7924 59.9483 55.944 59.9979 56.1 59.9979C56.256 59.9979 56.4076 59.9483 56.5306 59.8569C56.6536 59.7654 56.7411 59.6375 56.779 59.4933L58.179 54.16C58.1929 54.1077 58.1999 54.054 58.2 54V34.6667H59.6V40.6667H61V34C61 33.8232 60.9263 33.6536 60.795 33.5286C60.6637 33.4036 60.4856 33.3333 60.3 33.3333ZM56.1 56.5867L55.596 54.6667H56.604L56.1 56.5867ZM56.8 53.3333H55.4V34.6667H56.8V53.3333ZM56.8 33.3333H55.4V31.3333C55.4 31.1565 55.4737 30.987 55.605 30.8619C55.7363 30.7369 55.9143 30.6667 56.1 30.6667C56.2857 30.6667 56.4637 30.7369 56.595 30.8619C56.7262 30.987 56.8 31.1565 56.8 31.3333V33.3333ZM30.2 44H33V45.3333H30.2V44ZM34.4 44H48.4V45.3333H34.4V44ZM30.2 48H33V49.3333H30.2V48ZM34.4 48H48.4V49.3333H34.4V48ZM30.2 52H33V53.3333H30.2V52ZM34.4 52H48.4V53.3333H34.4V52ZM30.2 56H33V57.3333H30.2V56ZM34.4 56H48.4V57.3333H34.4V56Z" fill="#1F1F1F"/>
</svg>
