<svg width="68" height="66" viewBox="0 0 68 66" fill="none" xmlns="http://www.w3.org/2000/svg">
<path fill-rule="evenodd" clip-rule="evenodd" d="M38.664 17.8519C35.6865 17.8519 33.2644 20.2873 33.2644 23.3018C33.2644 24.4715 33.6291 25.554 34.2493 26.4408L34.5532 26.1344C34.9127 25.7718 35.4972 25.7703 35.8586 26.1309C36.2201 26.4916 36.2216 27.0778 35.8621 27.4404L35.5503 27.7548C36.1917 28.2124 36.9361 28.5324 37.741 28.6724V27.9031C37.741 27.3917 38.1542 26.9772 38.664 26.9772C39.1738 26.9772 39.5871 27.3917 39.5871 27.9031V28.6724C42.1264 28.2306 44.0637 25.9979 44.0637 23.3018C44.0637 20.2873 41.6416 17.8519 38.664 17.8519ZM39.5871 30.545C43.1564 30.0879 45.9098 27.0154 45.9098 23.3018C45.9098 19.2738 42.6704 16 38.664 16C34.6577 16 31.4183 19.2738 31.4183 23.3018C31.4183 24.9835 31.9829 26.5337 32.9322 27.7691L30.5609 30.1603L28.433 28.0145C26.3402 25.9041 22.9133 26.0119 20.9556 28.2495C20.9556 28.2495 20.9556 28.2494 20.9556 28.2495L18.7201 30.8041C18.3837 31.1884 18.4217 31.7735 18.8048 32.1108C19.188 32.4482 19.7712 32.4101 20.1075 32.0258L22.343 29.4711C23.596 28.039 25.7853 27.9704 27.1241 29.3205L29.2589 31.4733L28.1813 32.5599L26.6793 31.0452C25.6613 30.0187 24.0089 30.0187 22.9909 31.0452C21.9756 32.069 21.9756 33.7269 22.9909 34.7508L27.3037 39.0999C28.3217 40.1264 29.9742 40.1264 30.9922 39.0999C32.0075 38.076 32.0075 36.4182 30.9922 35.3943L29.4833 33.8728L30.5609 32.7862L32.6894 34.9326C33.8202 36.0729 33.9487 37.8259 33.11 39.1066C33.1069 39.1113 33.1037 39.116 33.1007 39.1208C32.946 39.3543 32.759 39.5719 32.54 39.7669L24.7374 46.709C24.2706 47.1243 23.5663 47.1021 23.1265 46.658L15.5097 38.9781C15.5097 38.9781 15.5098 38.9781 15.5097 38.9781C15.0664 38.5311 15.0441 37.8125 15.4587 37.3385C15.4587 37.3386 15.4587 37.3385 15.4587 37.3385L17.8835 34.5679C18.2198 34.1835 18.1819 33.5985 17.7988 33.2612C17.4156 32.9238 16.8324 32.9618 16.4961 33.3462L14.0713 36.1168C13.0161 37.3228 13.0725 39.1463 14.2009 40.2841L15.1308 41.2218L11.7295 44.6517C11.7295 44.6518 11.7296 44.6517 11.7295 44.6517C11.4928 44.8901 11.3204 45.185 11.2283 45.5082C11.1363 45.8314 11.1273 46.1729 11.2023 46.5005L11.3862 47.3025C11.3862 47.3023 11.3863 47.3027 11.3862 47.3025C11.3972 47.3519 11.382 47.4008 11.3505 47.4326L10.6876 48.1011C10.672 48.1168 10.6526 48.1285 10.6324 48.1343C10.6123 48.1401 10.5911 48.1407 10.5707 48.136L9.77385 47.9501C9.10753 47.7949 8.41026 47.9979 7.92945 48.4828L6.5222 49.9019C6.2862 50.1405 6.11456 50.4351 6.02289 50.758C5.93123 51.0809 5.92239 51.4219 5.99718 51.7491L6.18061 52.5529C6.19163 52.601 6.17717 52.6495 6.14545 52.6815L4.73899 54.0997C4.72331 54.1156 4.70404 54.127 4.68378 54.1329C4.66353 54.1387 4.64226 54.1393 4.6218 54.1345L3.82404 53.9487L3.82218 53.9482C3.15934 53.7952 2.46266 53.9956 1.98085 54.4814L1.13255 55.3369C0.854701 55.6171 0.668144 55.9726 0.592969 56.3571L0.0365511 59.2178C-0.0889438 59.865 0.112903 60.5343 0.57764 61.0017C0.57794 61.002 0.578239 61.0023 0.578539 61.0027L1.27141 61.7023C1.5002 61.9329 1.78276 62.1043 2.0932 62.1996C2.40362 62.2949 2.73267 62.3119 3.05121 62.2488C3.05118 62.2488 3.05124 62.2488 3.05121 62.2488L5.88296 61.6886C5.88352 61.6884 5.88408 61.6883 5.88465 61.6882C6.2712 61.6128 6.62664 61.4215 6.90322 61.1415C6.90381 61.1409 6.90441 61.1403 6.90501 61.1397L13.4558 54.5338C13.8153 54.1713 13.8138 53.585 13.4523 53.2244C13.0909 52.8637 12.5064 52.8653 12.1469 53.2278L5.59401 59.8359L5.59189 59.838C5.57516 59.855 5.55342 59.8663 5.53221 59.8704L5.52895 59.8711L2.69395 60.432C2.67398 60.4359 2.65328 60.4349 2.6337 60.4289C2.61414 60.4229 2.59585 60.412 2.58064 60.3967C2.58062 60.3967 2.58067 60.3967 2.58064 60.3967L1.88661 59.6958L1.88489 59.6941C1.85461 59.6637 1.83978 59.6181 1.8486 59.5721C1.84858 59.5722 1.84861 59.5721 1.8486 59.5721L2.40461 56.7135C2.4046 56.7135 2.40461 56.7135 2.40461 56.7135C2.41014 56.6853 2.42342 56.661 2.44144 56.6429L3.28973 55.7874C3.3208 55.7561 3.36554 55.7433 3.4077 55.7528C3.40753 55.7528 3.40787 55.7529 3.4077 55.7528L4.20468 55.9385C4.53183 56.0145 4.87339 56.0055 5.19598 55.912C5.51843 55.8186 5.8115 55.6442 6.04788 55.4057C6.04778 55.4058 6.04798 55.4056 6.04788 55.4057L7.45433 53.9874C7.93562 53.5021 8.13234 52.8038 7.98005 52.139L7.79673 51.3356C7.79143 51.3125 7.792 51.288 7.79846 51.2652C7.8049 51.2425 7.81677 51.2224 7.83248 51.2065C7.83241 51.2065 7.83255 51.2064 7.83248 51.2065L9.23834 49.7888C9.27054 49.7563 9.31523 49.7444 9.35597 49.7539L10.153 49.9398C10.4803 50.0159 10.8219 50.0069 11.1446 49.9135C11.4671 49.82 11.7601 49.6456 11.9965 49.4071M11.9965 49.4071L12.6594 48.7386C13.1407 48.2533 13.3367 47.5558 13.1866 46.8925L13.0016 46.0863C12.9964 46.0634 12.997 46.0395 13.0034 46.017C13.0099 45.9945 13.0217 45.9745 13.0373 45.9588L16.4328 42.5348L17.3612 43.471L14.4395 46.4173C14.08 46.7798 14.0815 47.3661 14.4429 47.7267C14.8044 48.0873 15.3888 48.0858 15.7484 47.7233L18.6632 44.784L19.5922 45.7208L14.5247 50.8301C14.1651 51.1926 14.1666 51.7789 14.528 52.1395C14.8894 52.5002 15.4739 52.4987 15.8334 52.1362L20.8946 47.0333L21.8168 47.9632C22.9468 49.104 24.7633 49.1613 25.9624 48.0944C25.9624 48.0944 25.9624 48.0944 25.9624 48.0944L29.3283 45.0997V51.6352C29.3283 52.1466 29.7415 52.5611 30.2514 52.5611C30.7612 52.5611 31.1744 52.1466 31.1744 51.6352V43.4572L33.7652 41.1521C33.9767 40.9638 34.1691 40.762 34.3421 40.5493H37.741V42.2674C36.815 42.6377 36.1635 43.5483 36.1635 44.6072C36.1635 45.9926 37.2785 47.1239 38.664 47.1239C40.0497 47.1239 41.1646 45.9924 41.1646 44.6072C41.1646 43.5482 40.5131 42.6376 39.5871 42.2674V40.5493H44.974C45.621 40.5493 46.1538 41.0795 46.1538 41.744V62.9534C46.1538 63.6179 45.621 64.1481 44.974 64.1481H32.3543C31.7072 64.1481 31.1744 63.6179 31.1744 62.9534V55.0259C31.1744 54.5146 30.7612 54.1 30.2514 54.1C29.7415 54.1 29.3283 54.5146 29.3283 55.0259V62.9534C29.3283 64.6314 30.6784 66 32.3543 66H44.974C46.6498 66 48 64.6314 48 62.9534V41.744C48 40.066 46.6498 38.6974 44.974 38.6974H39.5871V30.545M37.741 30.545C36.4303 30.3772 35.2296 29.8566 34.2349 29.0812L31.8629 31.4733L33.9983 33.6266C35.3664 35.0063 35.7929 36.9596 35.3026 38.6974H37.741V30.545ZM38.6554 43.9425C38.6583 43.9425 38.6612 43.9425 38.664 43.9425C38.6669 43.9425 38.6698 43.9425 38.6727 43.9425C39.0257 43.9472 39.3184 44.2384 39.3184 44.6072C39.3184 44.979 39.0208 45.272 38.664 45.272C38.3073 45.272 38.0097 44.979 38.0097 44.6072C38.0097 44.2385 38.3024 43.9472 38.6554 43.9425ZM27.5304 34.5293C27.5287 34.5276 27.5271 34.526 27.5255 34.5244L25.3704 32.3512C25.0742 32.0525 24.596 32.0525 24.2998 32.3512C24.0009 32.6526 24.0009 33.1433 24.2998 33.4448L28.6126 37.7939C28.9089 38.0926 29.387 38.0926 29.6833 37.7939C29.9822 37.4924 29.9822 37.0018 29.6833 36.7003L27.5304 34.5293ZM34.8783 50.5173C34.6958 50.5173 34.5394 50.6679 34.5394 50.864V54.3635C34.5394 54.5567 34.6914 54.706 34.8709 54.7101C34.8734 54.71 34.8759 54.71 34.8783 54.71H42.4499C42.4525 54.71 42.455 54.71 42.4575 54.7101C42.6368 54.706 42.7888 54.5569 42.7888 54.3635V50.864C42.7888 50.6679 42.6325 50.5173 42.4499 50.5173H34.8783ZM44.2318 55.636C44.4859 55.2763 44.635 54.8368 44.635 54.3635V50.864C44.635 49.6544 43.6613 48.6655 42.4499 48.6655H34.8783C33.6669 48.6655 32.6933 49.6544 32.6933 50.864V54.3635C32.6933 54.8368 32.8424 55.2763 33.0965 55.636C32.8424 55.9957 32.6933 56.4352 32.6933 56.9086V60.4081C32.6933 61.6176 33.6669 62.6066 34.8783 62.6066H42.4499C43.6613 62.6066 44.635 61.6176 44.635 60.4081V56.9086C44.635 56.4352 44.4859 55.9957 44.2318 55.636ZM34.8708 56.562C34.8733 56.562 34.8757 56.562 34.8782 56.562H42.4499C42.4525 56.562 42.455 56.562 42.4575 56.562C42.6368 56.5661 42.7888 56.7152 42.7888 56.9086V60.4081C42.7888 60.6042 42.6325 60.7547 42.4499 60.7547H34.8783C34.6958 60.7547 34.5394 60.6042 34.5394 60.4081V56.9086C34.5394 56.7151 34.6915 56.5661 34.8708 56.562Z" fill="#1F1F1F"/>
<circle cx="56" cy="12" r="12" fill="url(#paint0_linear_8021_1373)"/>
<path opacity="0.8" d="M51.9032 10.412C51.9472 9.89133 52.1342 9.41833 52.4642 8.993C52.7942 8.56033 53.2709 8.21567 53.8942 7.959C54.5176 7.70233 55.2766 7.574 56.1712 7.574C56.9339 7.574 57.5976 7.66933 58.1622 7.86C58.7342 8.05067 59.1742 8.31833 59.4822 8.663C59.7976 9.00767 59.9552 9.41467 59.9552 9.884C59.9552 10.2507 59.8416 10.588 59.6142 10.896C59.3942 11.204 59.0422 11.4497 58.5582 11.633C58.0816 11.809 57.4582 11.8933 56.6882 11.886V11.655C57.4069 11.6257 58.0229 11.677 58.5362 11.809C59.0496 11.941 59.4419 12.1573 59.7132 12.458C59.9919 12.7587 60.1312 13.14 60.1312 13.602C60.1312 14.1007 59.9699 14.5443 59.6472 14.933C59.3246 15.3217 58.8552 15.626 58.2392 15.846C57.6306 16.066 56.8826 16.176 55.9952 16.176C55.1372 16.176 54.3892 16.0587 53.7512 15.824C53.1132 15.5893 52.6146 15.2557 52.2552 14.823C51.9032 14.383 51.7162 13.8697 51.6942 13.283H53.9602C54.0189 13.6497 54.2096 13.932 54.5322 14.13C54.8622 14.328 55.3499 14.427 55.9952 14.427C56.5819 14.427 57.0292 14.339 57.3372 14.163C57.6526 13.987 57.8102 13.7413 57.8102 13.426C57.8102 13.2427 57.7589 13.0887 57.6562 12.964C57.5609 12.8393 57.3886 12.7477 57.1392 12.689C56.8899 12.623 56.5416 12.59 56.0942 12.59H54.6752V11.05H56.0942C56.6736 11.05 57.0769 10.973 57.3042 10.819C57.5389 10.665 57.6562 10.4597 57.6562 10.203C57.6562 9.92433 57.5206 9.708 57.2492 9.554C56.9852 9.4 56.5856 9.323 56.0502 9.323C55.4782 9.323 55.0382 9.41833 54.7302 9.609C54.4222 9.79967 54.2389 10.0673 54.1802 10.412H51.9032Z" fill="white"/>
<defs>
<linearGradient id="paint0_linear_8021_1373" x1="44" y1="16.5" x2="68" y2="6.5" gradientUnits="userSpaceOnUse">
<stop stop-color="#9F7437"/>
<stop offset="1" stop-color="#E3D293"/>
</linearGradient>
</defs>
</svg>
