<svg width="80" height="80" viewBox="0 0 80 80" fill="none" xmlns="http://www.w3.org/2000/svg">
<rect width="80" height="80" rx="20" fill="white"/>
<path d="M59.6488 42.6C59.2954 41.9923 58.7164 41.5489 58.0379 41.3663C57.3594 41.1838 56.6363 41.2769 56.026 41.6253L43.9791 48.652C43.9744 47.7708 43.6215 46.9272 42.9976 46.3054C42.3736 45.6837 41.5292 45.3342 40.6487 45.3333H27.3356C27.2813 45.3334 27.2272 45.3399 27.1744 45.3527L25.3094 45.8193C25.2655 45.3237 25.0383 44.8624 24.6722 44.5258C24.3061 44.1893 23.8275 44.0017 23.3304 44H21.9983C21.4683 44 20.96 44.2107 20.5853 44.5858C20.2105 44.9609 20 45.4696 20 46V58C20 58.5304 20.2105 59.0391 20.5853 59.4142C20.96 59.7893 21.4683 60 21.9983 60H23.3304C23.8262 59.9985 24.3036 59.8122 24.6695 59.4774C25.0354 59.1426 25.2635 58.6834 25.3094 58.1893L27.1678 58.6473C27.2199 58.6601 27.2733 58.6666 27.327 58.6667H36.479C37.0681 58.6666 37.6466 58.5102 38.1555 58.2133L58.6824 46.242C59.2884 45.883 59.7292 45.3001 59.91 44.6189C60.0908 43.9377 59.997 43.2127 59.6488 42.6ZM23.9965 58C23.9965 58.1768 23.9263 58.3464 23.8014 58.4714C23.6765 58.5964 23.5071 58.6667 23.3304 58.6667H21.9983C21.8216 58.6667 21.6522 58.5964 21.5273 58.4714C21.4024 58.3464 21.3322 58.1768 21.3322 58V46C21.3322 45.8232 21.4024 45.6536 21.5273 45.5286C21.6522 45.4036 21.8216 45.3333 21.9983 45.3333H23.3304C23.5071 45.3333 23.6765 45.4036 23.8014 45.5286C23.9263 45.6536 23.9965 45.8232 23.9965 46V58ZM58.0109 45.0907L37.4848 57.0613C37.1795 57.2394 36.8324 57.3333 36.479 57.3333H27.4082L25.3287 56.8207V47.188L27.4169 46.6667H40.6487C41.002 46.6658 41.3491 46.7589 41.6546 46.9365C41.9601 47.1141 42.213 47.3697 42.3874 47.6772C42.5617 47.9847 42.6513 48.3331 42.6469 48.6866C42.6426 49.0402 42.5444 49.3862 42.3626 49.6893C42.2792 49.8302 42.1797 49.9608 42.0661 50.0787C41.6899 50.4545 41.1803 50.6659 40.6487 50.6667H33.9878V52H40.6487C41.1946 52.0033 41.7328 51.8705 42.2146 51.6135C42.6964 51.3565 43.1066 50.9834 43.4083 50.528L56.6928 42.7787C56.8424 42.6912 57.0079 42.6343 57.1797 42.6113C57.3514 42.5884 57.526 42.5998 57.6934 42.6449C57.8607 42.6901 58.0174 42.7681 58.1543 42.8743C58.2913 42.9806 58.4058 43.1131 58.4912 43.264C58.6662 43.5707 58.714 43.934 58.6242 44.2756C58.5344 44.6172 58.3142 44.9099 58.0109 45.0907ZM20.6661 40H48.6418C48.8184 40 48.9878 39.9298 49.1128 39.8047C49.2377 39.6797 49.3078 39.5101 49.3078 39.3333V33.6513L51.2302 34.4213C51.7064 34.6124 52.2379 34.6124 52.7142 34.4213L54.6365 33.6513V35.3333C54.6365 35.5101 54.7067 35.6797 54.8316 35.8047C54.9565 35.9298 55.126 36 55.3026 36H59.2992C59.4758 36 59.6452 35.9298 59.7701 35.8047C59.8951 35.6797 59.9652 35.5101 59.9652 35.3333V20.6667C59.9652 20.4899 59.8951 20.3203 59.7701 20.1953C59.6452 20.0702 59.4758 20 59.2992 20H55.3026C55.126 20 54.9565 20.0702 54.8316 20.1953C54.7067 20.3203 54.6365 20.4899 54.6365 20.6667V21.3333H40.6487C40.4721 21.3334 40.3027 21.4036 40.1778 21.5287L37.7086 24H20.6661C20.4894 24 20.32 24.0702 20.1951 24.1953C20.0702 24.3203 20 24.4899 20 24.6667V39.3333C20 39.5101 20.0702 39.6797 20.1951 39.8047C20.32 39.9298 20.4894 40 20.6661 40ZM55.9687 21.3333H58.6331V34.6667H55.9687V21.3333ZM40.9245 22.6667H54.6365V32.2153L52.22 33.1827C52.0612 33.2467 51.8838 33.2467 51.7251 33.1827L48.8895 32.0493C48.8108 32.0174 48.7267 32.0007 48.6418 32H42.647C42.2937 32 41.9548 31.8595 41.705 31.6095C41.4551 31.3594 41.3148 31.0203 41.3148 30.6667C41.3148 30.313 41.4551 29.9739 41.705 29.7239C41.9548 29.4738 42.2937 29.3333 42.647 29.3333H51.3061V28H49.3078V24.6667C49.3078 24.4899 49.2377 24.3203 49.1128 24.1953C48.9878 24.0702 48.8184 24 48.6418 24H39.5923L40.9245 22.6667ZM21.3322 25.3333H47.9757V28H42.647C41.9403 28 41.2627 28.281 40.763 28.781C40.2633 29.2811 39.9826 29.9594 39.9826 30.6667C39.9826 31.3739 40.2633 32.0522 40.763 32.5523C41.2627 33.0524 41.9403 33.3333 42.647 33.3333H47.9757V38.6667H21.3322V25.3333Z" fill="#1F1F1F"/>
<path d="M34.6539 26.6667C33.6 26.6667 32.5698 26.9795 31.6935 27.5655C30.8172 28.1515 30.1342 28.9845 29.7308 29.959C29.3275 30.9336 29.222 32.0059 29.4276 33.0405C29.6332 34.075 30.1407 35.0254 30.886 35.7712C31.6312 36.5171 32.5807 37.0251 33.6143 37.2309C34.648 37.4366 35.7194 37.331 36.6931 36.9274C37.6668 36.5237 38.499 35.8401 39.0846 34.963C39.6701 34.086 39.9826 33.0548 39.9826 32C39.981 30.586 39.4191 29.2304 38.4201 28.2305C37.4211 27.2307 36.0667 26.6683 34.6539 26.6667ZM34.6539 36C33.8635 36 33.0908 35.7654 32.4336 35.3259C31.7763 34.8864 31.2641 34.2616 30.9616 33.5307C30.6591 32.7998 30.58 31.9956 30.7342 31.2196C30.8884 30.4437 31.269 29.731 31.828 29.1716C32.3869 28.6122 33.099 28.2312 33.8742 28.0769C34.6495 27.9225 35.4531 28.0017 36.1833 28.3045C36.9136 28.6072 37.5378 29.1199 37.9769 29.7777C38.4161 30.4355 38.6504 31.2089 38.6504 32C38.6494 33.0605 38.228 34.0773 37.4787 34.8273C36.7295 35.5772 35.7135 35.9989 34.6539 36ZM22.6643 27.3333V30H23.9965V28H25.9948V26.6667H23.3304C23.1538 26.6667 22.9844 26.7369 22.8594 26.8619C22.7345 26.987 22.6643 27.1565 22.6643 27.3333ZM23.9965 34H22.6643V36.6667C22.6643 36.8435 22.7345 37.013 22.8594 37.1381C22.9844 37.2631 23.1538 37.3333 23.3304 37.3333H25.9948V36H23.9965V34ZM45.3113 36H43.3131V37.3333H45.9774C46.1541 37.3333 46.3235 37.2631 46.4484 37.1381C46.5733 37.013 46.6435 36.8435 46.6435 36.6667V34H45.3113V36Z" fill="#1F1F1F"/>
</svg>
