<svg width="69" height="67" viewBox="0 0 69 67" fill="none" xmlns="http://www.w3.org/2000/svg">
<path d="M5.26761 31.6459V36.5878C5.26761 37.2744 5.82364 37.8309 6.50946 37.8309H11.0973M5.26761 31.6459L5.26731 29.3387C5.267 25.7759 6.65272 22.4263 9.16942 19.9069C11.6861 17.3875 15.0321 16 18.5911 16C25.9376 16 31.9147 21.9828 31.9151 29.3367L31.9153 31.6459C31.9154 33.0741 30.7589 34.2319 29.3321 34.2319M5.26761 31.6459C5.26781 33.0742 6.42455 34.2319 7.85131 34.2319M38.2228 19.9758H46.8475M38.2228 23.2997H46.8475M6.96791 61.0183V66M18.5911 18.6396C17.1959 18.6396 15.8629 18.9061 14.6399 19.3906C14.3763 19.8103 14.237 20.2962 14.2379 20.792C14.2414 24.7541 17.4528 27.9633 21.4109 28.2982L29.2762 28.2922C28.7264 22.8705 24.1523 18.6396 18.5911 18.6396ZM18.5911 18.6396C24.5226 18.6396 29.3313 23.4527 29.3316 29.3904L29.3323 38.4021C29.3325 41.3369 26.9559 43.716 24.0242 43.716H23.0897M18.5911 18.6396C12.659 18.6396 7.8501 23.4538 7.8506 29.3921L7.85171 38.4032C7.85211 41.3375 10.2285 43.716 13.1598 43.716H14.1191M26.3284 34.2319H29.3327M7.8506 34.2319H10.8602M10.8035 28.2924C10.812 28.2924 10.8202 28.2918 10.8287 28.2917H7.95312M10.8035 28.2924C13.1127 28.2904 14.9831 26.4149 14.9812 24.1034M10.8035 28.2924L10.8333 33.6231C10.8343 34.8085 11.1211 35.8732 11.5899 36.8113M13.5071 39.2986C15.2199 40.8563 17.3489 41.69 18.6012 41.7158C20.946 41.6634 26.3596 38.7746 26.3551 33.6098L26.3639 28.2944M39.0512 16H37.5946C35.6482 16 34.0703 17.5796 34.0703 19.5278V23.7659C34.0703 25.4352 35.2286 26.8336 36.7845 27.2C37.2609 27.3122 37.5917 27.7466 37.5917 28.2365V31.3356C37.5917 31.6468 37.9893 31.7762 38.1721 31.5245L40.9262 27.7342C41.0252 27.5977 41.1551 27.4867 41.3052 27.4102C41.4554 27.3337 41.6215 27.2938 41.7899 27.2938H47.4759C49.4222 27.2938 51 25.7143 51 23.7659V19.5278C51 17.5796 49.4222 16 47.4759 16H42.5352M29.724 46.9894L25.1073 45.7207C23.8506 45.3754 22.9792 44.2323 22.978 42.9278L22.9754 39.8846M14.2246 39.8926L14.2273 42.9353C14.2284 44.2399 13.3595 45.3843 12.1034 45.7317L7.4662 47.0147M7.4662 47.0147C9.6991 50.8388 13.8433 53.4083 18.5875 53.4083C18.8251 53.4083 19.0606 53.4002 19.2949 53.3874M7.4662 47.0147L5.24095 47.6303C2.7332 48.3241 0.997789 50.6089 1 53.2133L1.00946 64.1938C1.01026 65.1921 1.81942 66.0007 2.8168 65.9999L18.5696 65.9862M35.5611 50.5005C34.8341 49.114 33.5567 48.0425 31.9718 47.6071L29.7239 46.9893C28.9445 48.3297 27.9309 49.519 26.7314 50.5005M19.2949 59.5505V63.1404M41.9912 63.1404V51.8979C41.9912 51.1261 41.3663 50.5005 40.5953 50.5005H20.6908C19.9199 50.5005 19.2949 51.1261 19.2949 51.8979V56.0234M15.5285 39.2986H12.511C11.7302 39.2986 11.0973 38.6651 11.0973 37.8834C11.0973 37.1019 11.7302 36.4684 12.511 36.4684H15.5285C16.3093 36.4684 16.9423 37.1019 16.9423 37.8834C16.9423 38.6651 16.3093 39.2986 15.5285 39.2986ZM42.5299 65.9999H18.7563C17.9676 65.9999 17.3281 65.3598 17.3281 64.5702C17.3281 63.7805 17.9676 63.1404 18.7563 63.1404H42.5299C43.3187 63.1404 43.9581 63.7805 43.9581 64.5702C43.9581 65.3598 43.3187 65.9999 42.5299 65.9999Z" stroke="#1F1F1F" stroke-miterlimit="10" stroke-linecap="round" stroke-linejoin="round"/>
<circle cx="57" cy="12" r="12" fill="url(#paint0_linear_8021_1355)"/>
<path opacity="0.8" d="M59.0486 7.75V16H56.7936V8.542L57.8496 9.521L54.2966 10.148V8.388L57.3766 7.75H59.0486Z" fill="white"/>
<defs>
<linearGradient id="paint0_linear_8021_1355" x1="45" y1="16.5" x2="69" y2="6.5" gradientUnits="userSpaceOnUse">
<stop stop-color="#9F7437"/>
<stop offset="1" stop-color="#E3D293"/>
</linearGradient>
</defs>
</svg>
