<svg width="80" height="80" viewBox="0 0 80 80" fill="none" xmlns="http://www.w3.org/2000/svg">
<rect width="80" height="80" rx="20" fill="white"/>
<path d="M24.6667 29.7368H26V50.2632H24.6667V29.7368ZM27.3333 29.7368H28.6667V50.2632H27.3333V29.7368ZM30 29.7368H31.3333V50.2632H30V29.7368ZM32.6667 29.7368H34V50.2632H32.6667V29.7368ZM35.3333 29.7368H36.6667V50.2632H35.3333V29.7368ZM38 29.7368H39.3333V50.2632H38V29.7368ZM40.6667 29.7368H42V50.2632H40.6667V29.7368ZM43.3333 29.7368H44.6667V50.2632H43.3333V29.7368ZM46 29.7368H47.3333V50.2632H46V29.7368ZM48.6667 29.7368H50V50.2632H48.6667V29.7368ZM51.3333 29.7368H52.6667V50.2632H51.3333V29.7368ZM54 29.7368H55.3333V50.2632H54V29.7368ZM20 27.6842V30.4211H21.3333V28.3684H23.3333V27H20.6667C20.4899 27 20.3203 27.0721 20.1953 27.2004C20.0702 27.3287 20 27.5027 20 27.6842ZM59.3333 27H56.6667V28.3684H58.6667V30.4211H60V27.6842C60 27.5027 59.9298 27.3287 59.8047 27.2004C59.6797 27.0721 59.5101 27 59.3333 27ZM21.3333 49.5789H20V52.3158C20 52.4973 20.0702 52.6713 20.1953 52.7996C20.3203 52.9279 20.4899 53 20.6667 53H23.3333V51.6316H21.3333V49.5789ZM58.6667 51.6316H56.6667V53H59.3333C59.5101 53 59.6797 52.9279 59.8047 52.7996C59.9298 52.6713 60 52.4973 60 52.3158V49.5789H58.6667V51.6316Z" fill="#1F1F1F"/>
</svg>
