<svg width="80" height="80" viewBox="0 0 80 80" fill="none" xmlns="http://www.w3.org/2000/svg">
<rect width="80" height="80" rx="20" fill="white"/>
<path d="M50.9153 33.6048C49.817 31.7386 48.2614 30.183 46.3952 29.0847C46.3552 29.0576 46.3138 29.0322 46.2715 29.0094C42.3893 26.7747 37.6113 26.7747 33.7295 29.0094C33.6866 29.0322 33.645 29.0573 33.6048 29.0847C31.7386 30.183 30.183 31.7386 29.0847 33.6048C29.0572 33.6445 29.0322 33.6858 29.0094 33.7285C26.7747 37.611 26.7747 42.389 29.0094 46.2715C29.0384 46.3284 29.0719 46.3832 29.1094 46.4353C30.2062 48.2838 31.7526 49.8249 33.6048 50.9153C33.652 50.9483 33.7015 50.9785 33.7526 51.0052C37.6231 53.2204 42.3769 53.2204 46.2474 51.0052C46.2985 50.9786 46.348 50.9483 46.3952 50.9153C48.2474 49.8249 49.7938 48.2838 50.8906 46.4353C50.928 46.3833 50.9615 46.3286 50.9906 46.2715C53.2252 42.389 53.2252 37.611 50.9906 33.7285C50.9676 33.6861 50.9425 33.6448 50.9153 33.6048ZM46.2302 49.4573L45.5775 48.3239C45.5194 48.2218 45.4353 48.1368 45.3338 48.0776C45.2322 48.0184 45.1169 47.9872 44.9993 47.987C44.8818 47.9867 44.7663 48.0175 44.6646 48.0762C44.5628 48.135 44.4783 48.2196 44.4198 48.3214C44.3612 48.4233 44.3306 48.5389 44.3311 48.6564C44.3316 48.7739 44.3631 48.8892 44.4225 48.9906L45.0726 50.1173C43.7004 50.8088 42.2007 51.2111 40.6667 51.2994V50C40.6667 49.8232 40.5964 49.6536 40.4714 49.5286C40.3464 49.4036 40.1768 49.3333 40 49.3333C39.8232 49.3333 39.6536 49.4036 39.5286 49.5286C39.4036 49.6536 39.3333 49.8232 39.3333 50V51.2995C37.7995 51.2119 36.2999 50.8105 34.9274 50.1201L35.5774 48.9934C35.6613 48.8405 35.682 48.6609 35.635 48.493C35.588 48.325 35.4772 48.1822 35.3261 48.095C35.1751 48.0078 34.996 47.9833 34.8271 48.0266C34.6582 48.0699 34.5129 48.1777 34.4225 48.3267L33.7698 49.46C32.4881 48.6121 31.3905 47.5145 30.5427 46.2327L31.6761 45.5801C31.7783 45.522 31.8633 45.438 31.9224 45.3364C31.9816 45.2349 32.0129 45.1195 32.013 45.0019C32.0133 44.8844 31.9826 44.7689 31.9238 44.6671C31.865 44.5653 31.7804 44.4809 31.6784 44.4225C31.5766 44.3638 31.461 44.3332 31.3435 44.3337C31.226 44.3342 31.1107 44.3659 31.0094 44.4254L29.8827 45.0752C29.1908 43.7022 28.7884 42.2016 28.7006 40.6667H30C30.1768 40.6667 30.3464 40.5964 30.4714 40.4714C30.5964 40.3464 30.6667 40.1768 30.6667 40C30.6667 39.8232 30.5964 39.6536 30.4714 39.5286C30.3464 39.4036 30.1768 39.3333 30 39.3333H28.7005C28.7881 37.7995 29.1895 36.2999 29.8799 34.9274L31.0066 35.5774C31.108 35.6368 31.2233 35.6683 31.3408 35.6689C31.4583 35.6694 31.5738 35.6389 31.6757 35.5804C31.7777 35.5219 31.8624 35.4375 31.9212 35.3356C31.98 35.2338 32.0108 35.1182 32.0104 35.0007C32.0102 34.8831 31.9788 34.7677 31.9196 34.6662C31.8604 34.5646 31.7754 34.4806 31.6732 34.4225L30.54 33.7698C31.3879 32.4881 32.4855 31.3905 33.7673 30.5427L34.4199 31.6761C34.478 31.7783 34.5621 31.8633 34.6636 31.9224C34.7651 31.9816 34.8806 32.0129 34.9981 32.013C35.1156 32.0133 35.2311 31.9826 35.3329 31.9238C35.4347 31.865 35.519 31.7804 35.5775 31.6784C35.6362 31.5766 35.6668 31.461 35.6663 31.3435C35.6658 31.226 35.6341 31.1107 35.5746 31.0094L34.9248 29.8827C36.2978 29.1908 37.7984 28.7884 39.3333 28.7006V30C39.3333 30.1768 39.4036 30.3464 39.5286 30.4714C39.6536 30.5964 39.8232 30.6667 40 30.6667C40.1768 30.6667 40.3464 30.5964 40.4714 30.4714C40.5964 30.3464 40.6667 30.1768 40.6667 30V28.7005C42.2005 28.7881 43.7001 29.1895 45.0726 29.8799L44.4226 31.0066C44.3632 31.108 44.3317 31.2233 44.3311 31.3408C44.3306 31.4583 44.3611 31.5738 44.4196 31.6757C44.4781 31.7777 44.5625 31.8624 44.6644 31.9212C44.7662 31.98 44.8818 32.0108 44.9993 32.0104C45.1169 32.0102 45.2323 31.9788 45.3338 31.9196C45.4354 31.8604 45.5194 31.7754 45.5775 31.6732L46.2302 30.54C47.5119 31.3879 48.6095 32.4855 49.4573 33.7673L48.3239 34.4199C48.2217 34.478 48.1367 34.5621 48.0775 34.6636C48.0184 34.7651 47.9871 34.8806 47.987 34.9981C47.9867 35.1156 48.0174 35.2311 48.0762 35.3329C48.135 35.4347 48.2196 35.519 48.3216 35.5775C48.4234 35.6362 48.539 35.6668 48.6565 35.6663C48.774 35.6658 48.8893 35.6341 48.9906 35.5746L50.1173 34.9248C50.8092 36.2978 51.2116 37.7984 51.2994 39.3333H50C49.8232 39.3333 49.6536 39.4036 49.5286 39.5286C49.4036 39.6536 49.3333 39.8232 49.3333 40C49.3333 40.1768 49.4036 40.3464 49.5286 40.4714C49.6536 40.5964 49.8232 40.6667 50 40.6667H51.2995C51.2119 42.2005 50.8105 43.7001 50.1201 45.0726L48.9934 44.4226C48.8405 44.3387 48.6609 44.318 48.493 44.365C48.325 44.412 48.1822 44.5228 48.095 44.6739C48.0078 44.8249 47.9833 45.004 48.0266 45.1729C48.0699 45.3418 48.1777 45.4871 48.3267 45.5775L49.46 46.2302C48.6113 47.5121 47.5128 48.6097 46.2302 49.4573Z" fill="#1F1F1F"/>
<path d="M40 32C39.8232 32 39.6536 32.0702 39.5286 32.1953C39.4036 32.3203 39.3333 32.4899 39.3333 32.6667V39.3333H34C33.8232 39.3333 33.6536 39.4036 33.5286 39.5286C33.4036 39.6536 33.3333 39.8232 33.3333 40C33.3333 40.1768 33.4036 40.3464 33.5286 40.4714C33.6536 40.5964 33.8232 40.6667 34 40.6667H40C40.1768 40.6667 40.3464 40.5964 40.4714 40.4714C40.5964 40.3464 40.6667 40.1768 40.6667 40V32.6667C40.6667 32.4899 40.5964 32.3203 40.4714 32.1953C40.3464 32.0702 40.1768 32 40 32Z" fill="#1F1F1F"/>
<path d="M59.3333 35.3333H54.6055C54.3461 34.5202 54.0188 33.7304 53.6273 32.972L56.9707 29.6286C57.2308 29.3685 57.2308 28.9463 56.9707 28.6858L51.3142 23.0293C51.0538 22.7692 50.6315 22.7692 50.3714 23.0293L47.028 26.3727C46.2696 25.9811 45.4798 25.654 44.6667 25.3946V20.6667C44.6667 20.4899 44.5964 20.3203 44.4714 20.1953C44.3464 20.0702 44.1768 20 44 20H36C35.8232 20 35.6536 20.0702 35.5286 20.1953C35.4036 20.3203 35.3333 20.4899 35.3333 20.6667V25.3945C34.5202 25.6539 33.7304 25.9812 32.972 26.3728L29.6286 23.0293C29.3643 22.7793 28.9505 22.7793 28.6858 23.0293L23.0293 28.6858C22.7692 28.9463 22.7692 29.3685 23.0293 29.6286L26.3727 32.972C25.9811 33.7304 25.654 34.5202 25.3946 35.3333H20.6667C20.4899 35.3333 20.3203 35.4036 20.1953 35.5286C20.0702 35.6536 20 35.8232 20 36V44C20 44.1768 20.0702 44.3464 20.1953 44.4714C20.3203 44.5964 20.4899 44.6667 20.6667 44.6667H25.3945C25.6539 45.4798 25.9812 46.2696 26.3728 47.028L23.0293 50.3714C22.7692 50.6315 22.7692 51.0538 23.0293 51.3142L28.6858 56.9707C28.9463 57.2308 29.3685 57.2308 29.6286 56.9707L32.972 53.6273C33.7304 54.0189 34.5202 54.346 35.3333 54.6054V59.3333C35.3333 59.5101 35.4036 59.6797 35.5286 59.8047C35.6536 59.9298 35.8232 60 36 60H44C44.1768 60 44.3464 59.9298 44.4714 59.8047C44.5964 59.6797 44.6667 59.5101 44.6667 59.3333V54.6055C45.4798 54.3461 46.2696 54.0188 47.028 53.6273L50.3714 56.9707C50.6315 57.2308 51.0538 57.2308 51.3142 56.9707L56.9707 51.3142C57.2308 51.0538 57.2308 50.6315 56.9707 50.3714L53.6273 47.028C54.0189 46.2696 54.346 45.4798 54.6054 44.6667H59.3333C59.5101 44.6667 59.6797 44.5964 59.8047 44.4714C59.9298 44.3464 60 44.1768 60 44V36C60 35.8232 59.9298 35.6536 59.8047 35.5286C59.6797 35.4036 59.5101 35.3333 59.3333 35.3333ZM58.6667 43.3333H54.11C53.9648 43.3334 53.8237 43.3808 53.7079 43.4684C53.5922 43.556 53.5082 43.679 53.4688 43.8187C53.1723 44.8653 52.7545 45.8736 52.2239 46.8233C52.1522 46.9503 52.1242 47.0973 52.144 47.2418C52.1639 47.3863 52.2306 47.5204 52.3339 47.6233L55.556 50.846L50.8428 55.5592L47.6201 52.3333C47.5171 52.23 47.3831 52.1633 47.2386 52.1435C47.0941 52.1236 46.947 52.1516 46.82 52.2233C45.8714 52.7533 44.8641 53.1706 43.8187 53.4668C43.679 53.5062 43.5559 53.5902 43.4683 53.706C43.3807 53.8217 43.3333 53.9629 43.3333 54.1081V58.6667H36.6667V54.11C36.6666 53.9648 36.6192 53.8237 36.5316 53.7079C36.444 53.5922 36.321 53.5082 36.1813 53.4688C35.1347 53.1723 34.1264 52.7545 33.1768 52.224C33.0497 52.1523 32.9027 52.1243 32.7582 52.1441C32.6137 52.164 32.4796 52.2307 32.3767 52.334L29.154 55.556L24.4408 50.8428L27.6667 47.6201C27.77 47.5171 27.8367 47.3831 27.8565 47.2386C27.8764 47.0941 27.8484 46.947 27.7767 46.82C27.2467 45.8714 26.8294 44.8641 26.5332 43.8187C26.4936 43.6786 26.4094 43.5554 26.2933 43.4678C26.1771 43.3801 26.0355 43.3329 25.89 43.3333H21.3333V36.6667H25.89C26.0352 36.6666 26.1763 36.6192 26.2921 36.5316C26.4078 36.444 26.4918 36.321 26.5313 36.1813C26.8277 35.1347 27.2455 34.1264 27.7761 33.1768C27.8478 33.0497 27.8758 32.9027 27.856 32.7582C27.8361 32.6137 27.7694 32.4796 27.6661 32.3767L24.444 29.1573L29.1573 24.4433L32.3799 27.6667C32.4829 27.77 32.6169 27.8367 32.7614 27.8565C32.9059 27.8764 33.053 27.8484 33.18 27.7767C34.1286 27.2467 35.1359 26.8294 36.1813 26.5332C36.3214 26.4936 36.4446 26.4094 36.5322 26.2933C36.6199 26.1771 36.6671 26.0355 36.6667 25.89V21.3333H43.3333V25.89C43.3334 26.0352 43.3808 26.1763 43.4684 26.2921C43.556 26.4078 43.679 26.4918 43.8187 26.5313C44.8653 26.8277 45.8736 27.2455 46.8233 27.7761C46.9503 27.8478 47.0973 27.8758 47.2418 27.856C47.3863 27.8361 47.5204 27.7694 47.6233 27.6661L50.846 24.4433L55.5592 29.1573L52.3333 32.3799C52.23 32.4829 52.1633 32.6169 52.1435 32.7614C52.1236 32.9059 52.1516 33.053 52.2233 33.18C52.7533 34.1286 53.1706 35.1359 53.4668 36.1813C53.5062 36.3211 53.5902 36.4441 53.706 36.5317C53.8217 36.6193 53.9629 36.6667 54.1081 36.6667H58.6667V43.3333Z" fill="#1F1F1F"/>
</svg>
