<svg width="24" height="24" viewBox="0 0 24 24" fill="none" xmlns="http://www.w3.org/2000/svg">
<g opacity="0.3">
<path d="M17.507 14.3072L17.498 14.3822C15.299 13.2862 15.069 13.1402 14.785 13.5662C14.588 13.8612 14.014 14.5302 13.841 14.7282C13.666 14.9232 13.492 14.9382 13.195 14.8032C12.895 14.6532 11.932 14.3382 10.792 13.3182C9.904 12.5232 9.308 11.5482 9.132 11.2482C8.839 10.7422 9.452 10.6702 10.01 9.61426C10.11 9.40426 10.059 9.23927 9.985 9.09027C9.91 8.94027 9.313 7.4703 9.063 6.88431C8.823 6.30032 8.576 6.37432 8.391 6.37432C7.815 6.32432 7.394 6.33232 7.023 6.71831C5.409 8.49228 5.816 10.3222 7.197 12.2682C9.911 15.8201 11.357 16.4741 14.001 17.3821C14.715 17.6091 15.366 17.5771 15.881 17.5031C16.455 17.4121 17.648 16.7821 17.897 16.0771C18.152 15.3722 18.152 14.7872 18.077 14.6522C18.003 14.5172 17.807 14.4422 17.507 14.3072Z" fill="white"/>
<path d="M20.52 3.44937C12.831 -3.9835 0.106 1.40741 0.101 11.8932C0.101 13.9892 0.65 16.0331 1.696 17.8381L0 24L6.335 22.348C14.24 26.618 23.996 20.9481 24 11.8992C24 8.72328 22.76 5.73433 20.505 3.48837L20.52 3.44937ZM22.002 11.8662C21.996 19.4991 13.617 24.266 6.99 20.3701L6.63 20.1561L2.88 21.1311L3.885 17.4861L3.646 17.1111C-0.478 10.5462 4.26 1.9664 12.072 1.9664C14.726 1.9664 17.217 3.00138 19.093 4.87634C20.968 6.73531 22.002 9.22627 22.002 11.8662Z" fill="white"/>
</g>
</svg>
