<svg width="80" height="80" viewBox="0 0 80 80" fill="none" xmlns="http://www.w3.org/2000/svg">
<rect width="80" height="80" rx="20" fill="white"/>
<path d="M40 20C36.0444 20 32.1776 21.173 28.8886 23.3706C25.5996 25.5682 23.0362 28.6918 21.5224 32.3463C20.0087 36.0009 19.6126 40.0222 20.3843 43.9018C21.156 47.7814 23.0608 51.3451 25.8579 54.1421C28.6549 56.9392 32.2186 58.844 36.0982 59.6157C39.9778 60.3874 43.9992 59.9913 47.6537 58.4776C51.3082 56.9638 54.4318 54.4004 56.6294 51.1114C58.827 47.8224 60 43.9556 60 40C59.994 34.6975 57.8849 29.6139 54.1355 25.8645C50.3861 22.1151 45.3025 20.006 40 20ZM40.6667 22.6833V21.35C43.4901 21.447 46.2539 22.1879 48.7473 23.516L48.0807 24.672C45.7905 23.4596 43.2562 22.7798 40.6667 22.6833ZM39.3333 22.6833C36.7441 22.7799 34.21 23.4597 31.92 24.672L31.2533 23.516C33.7465 22.188 36.5102 21.4471 39.3333 21.35V22.6833ZM40 24C42.3482 23.9997 44.6676 24.5171 46.793 25.5155C48.9185 26.5138 50.7976 27.9685 52.2967 29.776L42.7127 34.6553C41.8733 34.2246 40.9434 34 40 34C39.0566 34 38.1267 34.2246 37.2873 34.6553L27.7033 29.776C29.2024 27.9685 31.0815 26.5138 33.207 25.5155C35.3324 24.5171 37.6518 23.9997 40 24ZM54.494 33.2333L45.9547 39.2967C45.7811 37.8336 45.074 36.4861 43.9687 35.512L53.1173 30.8547C53.6436 31.6066 54.1041 32.4024 54.494 33.2333ZM40 56C39.5333 56 39.0667 55.9753 38.608 55.9333L37.526 45.46C38.3022 45.8158 39.1461 46 40 46C40.8539 46 41.6978 45.8158 42.474 45.46L41.392 55.9333C40.9333 55.9753 40.4667 56 40 56ZM40 44.6667C39.077 44.6667 38.1748 44.393 37.4073 43.8802C36.6399 43.3674 36.0418 42.6386 35.6886 41.7859C35.3354 40.9331 35.2429 39.9948 35.423 39.0896C35.6031 38.1843 36.0475 37.3528 36.7002 36.7002C37.3528 36.0475 38.1843 35.6031 39.0896 35.423C39.9948 35.2429 40.9331 35.3354 41.7859 35.6886C42.6386 36.0418 43.3674 36.6399 43.8802 37.4073C44.393 38.1748 44.6667 39.077 44.6667 40C44.6653 41.2372 44.1731 42.4234 43.2983 43.2983C42.4234 44.1731 41.2372 44.6653 40 44.6667ZM26.8827 30.8547L36.0313 35.512C34.926 36.4861 34.2189 37.8336 34.0453 39.2967L25.506 33.2333C25.8959 32.4024 26.3564 31.6066 26.8827 30.8547ZM22.6833 39.3333H21.35C21.447 36.5099 22.1879 33.7461 23.516 31.2527L24.672 31.9193C23.4596 34.2095 22.7798 36.7438 22.6833 39.3333ZM22.6833 40.6667C22.7799 43.2559 23.4597 45.79 24.672 48.08L23.516 48.7467C22.188 46.2535 21.4471 43.4898 21.35 40.6667H22.6833ZM24 40C23.9984 38.1212 24.329 36.2569 24.9767 34.4933L34.084 40.96C34.3104 42.3526 35.0207 43.6208 36.09 44.5413L37.2487 55.7587C33.5409 55.1068 30.1811 53.1702 27.7585 50.2887C25.336 47.4071 24.0053 43.7646 24 40ZM39.3333 57.3167V58.65C36.51 58.553 33.7461 57.8121 31.2527 56.484L31.9193 55.328C34.2095 56.5404 36.7438 57.2202 39.3333 57.3167ZM40.6667 57.3167C43.256 57.2201 45.79 56.5403 48.08 55.328L48.7467 56.484C46.2535 57.812 43.4898 58.5529 40.6667 58.65V57.3167ZM42.7513 55.7587L43.91 44.5413C44.9793 43.6208 45.6896 42.3526 45.916 40.96L55.0233 34.4933C55.829 36.692 56.1422 39.0407 55.9409 41.3737C55.7397 43.7067 55.0287 45.967 53.8584 47.9952C52.688 50.0234 51.0867 51.77 49.1675 53.1116C47.2484 54.4533 45.0581 55.3574 42.7513 55.76V55.7587ZM57.3167 40.6667H58.65C58.553 43.49 57.8121 46.2539 56.484 48.7473L55.328 48.0807C56.5404 45.7905 57.2202 43.2562 57.3167 40.6667ZM57.3167 39.3333C57.2201 36.7441 56.5403 34.21 55.328 31.92L56.484 31.2533C57.812 33.7465 58.5529 36.5102 58.65 39.3333H57.3167ZM55.814 30.1L54.6587 30.7667C53.2749 28.5783 51.4217 26.7251 49.2333 25.3413L49.9 24.186C52.2904 25.6883 54.3117 27.7096 55.814 30.1ZM30.1 24.186L30.7667 25.3413C28.5783 26.7251 26.7251 28.5783 25.3413 30.7667L24.186 30.1C25.6883 27.7096 27.7096 25.6883 30.1 24.186ZM24.186 49.9L25.3413 49.2333C26.7251 51.4217 28.5783 53.2749 30.7667 54.6587L30.1 55.814C27.7096 54.3117 25.6883 52.2904 24.186 49.9ZM49.9 55.814L49.2333 54.6587C51.4217 53.2749 53.2749 51.4217 54.6587 49.2333L55.814 49.9C54.3117 52.2904 52.2904 54.3117 49.9 55.814Z" fill="#1F1F1F"/>
<path d="M40 38C39.6044 38 39.2178 38.1173 38.8889 38.3371C38.56 38.5568 38.3036 38.8692 38.1522 39.2346C38.0009 39.6001 37.9613 40.0022 38.0384 40.3902C38.1156 40.7781 38.3061 41.1345 38.5858 41.4142C38.8655 41.6939 39.2219 41.8844 39.6098 41.9616C39.9978 42.0387 40.3999 41.9991 40.7654 41.8478C41.1308 41.6964 41.4432 41.44 41.6629 41.1111C41.8827 40.7822 42 40.3956 42 40C42 39.4696 41.7893 38.9609 41.4142 38.5858C41.0391 38.2107 40.5304 38 40 38ZM40 40.6667C39.8682 40.6667 39.7393 40.6276 39.6296 40.5543C39.52 40.4811 39.4345 40.3769 39.3841 40.2551C39.3336 40.1333 39.3204 39.9993 39.3461 39.8699C39.3719 39.7406 39.4354 39.6218 39.5286 39.5286C39.6218 39.4354 39.7406 39.3719 39.8699 39.3461C39.9993 39.3204 40.1333 39.3336 40.2551 39.3841C40.3769 39.4345 40.4811 39.52 40.5543 39.6296C40.6276 39.7393 40.6667 39.8681 40.6667 40C40.6667 40.1768 40.5964 40.3464 40.4714 40.4714C40.3464 40.5964 40.1768 40.6667 40 40.6667Z" fill="#1F1F1F"/>
</svg>
